<?xml version="1.0" standalone="no"?>
<!DOCTYPE svg PUBLIC "-//W3C//DTD SVG 20010904//EN"
 "http://www.w3.org/TR/2001/REC-SVG-20010904/DTD/svg10.dtd">
<svg version="1.0" xmlns="http://www.w3.org/2000/svg"
 width="400.000000pt" height="400.000000pt" viewBox="0 0 400.000000 400.000000"
 preserveAspectRatio="xMidYMid meet">

<g transform="translate(0.000000,400.000000) scale(0.100000,-0.100000)"
fill="#000000" stroke="none">
<path d="M0 2000 l0 -2000 2000 0 2000 0 0 2000 0 2000 -2000 0 -2000 0 0
-2000z m1363 1831 c-7 -71 -1 -96 32 -145 l25 -37 -22 6 c-62 19 -95 90 -83
182 6 47 9 53 30 53 22 0 23 -2 18 -59z m-85 -141 c10 -146 20 -172 99 -259
48 -54 52 -61 32 -61 -29 0 -120 97 -152 160 -18 38 -22 62 -22 145 0 63 5
115 15 140 17 47 17 48 28 -125z m60 -14 c17 -20 17 -20 -8 -5 -16 10 -26 27
-27 45 -3 29 -3 29 8 4 5 -13 18 -34 27 -44z m216 -17 c55 -24 62 -36 9 -14
-53 23 -117 61 -133 81 -8 9 7 2 32 -15 26 -17 67 -41 92 -52z m240 -107 c37
-33 65 -65 66 -73 0 -3 -7 -6 -15 -6 -8 0 -13 2 -10 5 7 7 -82 90 -115 107
-17 9 -30 18 -30 20 0 11 77 -28 104 -53z m-89 20 c-3 -3 -11 0 -18 7 -9 10
-8 11 6 5 10 -3 15 -9 12 -12z m-555 -229 c-36 -14 -83 -38 -106 -53 -43 -29
-104 -53 -104 -42 0 15 131 88 195 108 72 23 82 14 15 -13z m110 2 c-37 -14
-98 -20 -86 -8 6 6 74 20 106 21 8 0 -1 -6 -20 -13z m915 -5 c-3 -5 -13 -10
-21 -10 -30 0 -162 -68 -201 -104 -44 -39 -53 -43 -53 -23 0 43 140 117 278
146 2 1 0 -3 -3 -9z m-1015 -79 c-8 -5 -31 -12 -50 -16 -19 -4 -48 -14 -64
-22 l-30 -16 60 -27 c36 -16 71 -41 89 -64 73 -90 133 -150 175 -172 l45 -25
-35 7 c-19 4 -48 13 -64 21 -44 23 -116 93 -137 135 -23 45 -86 94 -142 109
-36 10 -38 11 -20 24 22 15 139 53 168 54 16 0 17 -1 5 -8z m870 -17 c0 -9 7
-32 16 -51 16 -33 16 -35 -4 -55 l-20 -21 -31 22 c-17 12 -36 32 -42 44 -10
18 -8 25 22 49 37 31 59 36 59 12z m1370 -24 c0 -28 -35 -60 -65 -60 -23 0
-22 2 18 40 23 22 43 40 45 40 1 0 2 -9 2 -20z m25 -43 c-4 -14 -15 -33 -26
-43 -18 -16 -19 -16 -19 3 0 20 38 78 47 70 2 -3 1 -16 -2 -30z m-1490 -17 c3
-6 -1 -7 -9 -4 -18 7 -21 14 -7 14 6 0 13 -4 16 -10z m1046 -5 c-39 -17 -51
-19 -51 -6 0 11 23 18 60 19 22 1 21 0 -9 -13z m173 -5 c-6 -6 -26 -6 -54 -1
l-45 9 55 1 c35 1 51 -2 44 -9z m49 -7 c-7 -2 -19 -2 -25 0 -7 3 -2 5 12 5 14
0 19 -2 13 -5z m-1100 -29 c11 -15 55 -49 96 -76 42 -28 75 -54 73 -60 -1 -5
2 -7 8 -3 12 8 70 -16 70 -28 0 -5 17 1 38 13 32 19 35 20 20 3 -17 -18 -16
-20 12 -37 55 -32 33 -52 -42 -38 -28 6 -53 5 -63 -1 -20 -11 -15 3 14 37 15
18 15 18 -6 7 -19 -10 -32 -7 -85 20 -81 41 -198 118 -198 131 0 9 32 57 39
58 2 0 12 -12 24 -26z m1175 19 c-10 -2 -28 -2 -40 0 -13 2 -5 4 17 4 22 1 32
-1 23 -4z m62 -143 c0 -5 -10 -10 -22 -10 -19 0 -20 2 -8 10 19 13 30 13 30 0z
m-1600 -36 c0 -25 -94 -202 -157 -295 -119 -177 -171 -333 -180 -539 -3 -83
-1 -151 5 -175 10 -37 10 -38 -4 -20 -56 75 -59 295 -6 452 38 112 79 194 142
288 27 38 74 120 106 180 32 61 63 113 68 117 17 12 26 9 26 -8z m784 -75 c6
5 26 6 44 4 24 -4 32 -10 30 -22 -4 -22 -88 -25 -88 -4 0 9 -6 13 -15 9 -8 -3
-15 -2 -15 3 0 15 14 21 24 11 5 -5 14 -6 20 -1z m111 -29 c-3 -5 -10 -10 -16
-10 -5 0 -9 5 -9 10 0 6 7 10 16 10 8 0 12 -4 9 -10z m119 -6 c25 -10 8 -24
-30 -24 -24 0 -34 5 -34 15 0 15 35 20 64 9z m-304 -58 c0 -3 -10 -21 -22 -42
-12 -20 -31 -64 -44 -98 -26 -73 -44 -80 -136 -45 l-61 22 34 29 c89 75 229
157 229 134z m858 -73 c23 -19 47 -44 53 -56 7 -12 -17 5 -52 37 -35 33 -66
62 -69 65 -18 16 32 -18 68 -46z m-693 -25 c-21 -63 -70 -164 -85 -173 -6 -4
-41 4 -78 16 l-67 23 60 11 60 12 -42 4 -42 4 101 82 c56 45 104 80 106 78 2
-2 -4 -28 -13 -57z m-1005 -76 c0 -5 -6 -16 -13 -27 -10 -12 -16 -14 -21 -7
-4 7 -2 12 3 12 6 0 10 3 10 8 -3 14 1 22 11 22 6 0 10 -4 10 -8z m1749 -61
c0 -34 -1 -35 -10 -11 -6 14 -17 37 -24 52 l-14 28 25 -16 c18 -13 24 -25 23
-53z m-1319 32 c39 -16 50 -29 50 -60 0 -44 -52 -61 -114 -37 -12 5 -19 -2
-27 -25 -11 -32 -16 -36 -36 -23 -9 5 -5 27 13 82 14 40 28 78 30 82 6 9 27 4
84 -19z m-480 -6 c0 -7 -7 -22 -15 -33 -13 -17 -14 -16 -4 14 11 33 19 41 19
19z m270 -2 c0 -14 -13 -29 -55 -64 -13 -11 -15 -23 -10 -65 4 -28 11 -53 16
-54 5 -2 15 -10 23 -17 7 -7 19 -13 27 -13 36 2 49 -4 63 -29 11 -21 15 -23
16 -10 0 22 -33 31 320 -90 421 -144 530 -185 530 -195 0 -22 -73 -147 -103
-176 -36 -35 -192 -122 -252 -142 -46 -14 -66 -30 -48 -37 6 -2 21 -23 32 -46
12 -23 39 -66 62 -96 55 -72 67 -112 81 -258 8 -85 15 -123 23 -123 24 0 131
87 189 153 37 42 69 68 87 72 37 8 135 -14 153 -34 23 -26 53 -129 71 -246 47
-317 77 -438 124 -500 21 -27 50 -69 64 -92 l26 -42 -37 -29 c-56 -45 -184
-132 -194 -132 -4 0 -8 59 -8 132 l0 132 -37 38 c-32 33 -35 40 -23 49 13 9
12 10 -3 5 -11 -4 -31 7 -57 30 -44 40 -43 59 1 50 22 -4 29 -2 29 9 0 8 -4
14 -9 13 -5 -2 -16 6 -24 17 -15 20 -15 20 -37 0 -19 -17 -23 -18 -45 -5 -13
8 -99 87 -190 174 -153 146 -165 160 -146 170 18 10 19 13 6 41 -8 17 -26 57
-39 90 l-24 59 -16 -38 c-18 -44 -38 -40 -29 6 4 20 2 29 -4 25 -6 -4 -13 -25
-17 -47 -5 -30 -11 -40 -26 -42 -11 0 -26 -1 -32 -2 -7 -1 -17 -6 -21 -13 -9
-14 -51 -1 -80 24 -9 9 -19 14 -20 12 -7 -8 -57 -152 -55 -155 2 -1 31 -4 66
-6 56 -2 78 -11 52 -20 -13 -4 -34 -82 -100 -378 l-51 -225 34 -215 c19 -118
32 -217 30 -220 -9 -10 -351 -3 -438 9 -122 17 -272 53 -376 91 l-87 31 -12
147 c-16 205 -37 379 -60 502 -11 58 -26 172 -35 253 l-16 148 35 44 c20 23
56 56 81 71 25 16 45 32 45 36 0 15 44 48 63 48 19 0 19 -1 4 -18 -26 -28 -21
-37 23 -39 27 -1 91 -25 192 -73 155 -74 351 -153 410 -165 l33 -7 -56 59
c-71 73 -118 142 -172 253 -23 48 -51 93 -62 99 -15 9 -15 10 -2 7 9 -3 17 -1
17 4 0 6 -11 10 -25 10 -14 0 -25 4 -25 10 0 5 25 46 55 90 30 44 55 89 55 98
0 10 7 27 15 38 8 10 15 31 15 46 0 16 6 28 15 30 12 2 6 16 -25 57 -55 73
-50 85 10 26 34 -33 50 -58 50 -75 0 -17 3 -21 9 -12 7 11 9 10 15 -3 3 -9 10
-13 16 -10 5 3 10 1 10 -5 0 -7 6 -10 14 -7 8 3 17 1 20 -6 2 -7 5 -1 5 12 1
12 -12 69 -28 125 -24 80 -51 201 -51 223 0 2 -13 9 -29 16 -41 18 -138 129
-152 176 -22 72 44 231 96 231 8 0 15 -7 15 -15z m-239 -42 c-12 -20 -14 -14
-5 12 4 9 9 14 11 11 3 -2 0 -13 -6 -23z m56 -11 c-1 -22 -8 -45 -15 -52 -12
-11 -13 -10 -9 6 3 10 8 34 12 52 9 43 14 41 12 -6z m75 -4 c-6 -18 -16 -64
-23 -103 l-13 -70 -9 47 c-8 40 -5 54 19 107 30 64 43 74 26 19z m502 1 c26
-21 36 -59 15 -59 -7 0 -22 12 -36 26 -22 24 -44 28 -49 8 -2 -5 14 -21 35
-35 44 -31 55 -59 34 -88 -32 -46 -143 -11 -143 45 0 31 28 32 39 0 9 -23 29
-36 57 -36 26 0 14 26 -26 59 -41 33 -51 66 -28 89 19 19 73 14 102 -9z m596
-6 c7 -16 19 -47 26 -71 l13 -43 -31 6 c-55 12 -86 68 -53 95 8 7 15 19 15 26
0 23 16 16 30 -13z m-183 -39 c-2 -2 -12 -2 -21 2 -15 6 -15 7 1 20 15 11 19
10 21 -2 2 -9 2 -18 -1 -20z m-294 -24 c5 -19 10 -37 12 -39 2 -2 18 7 35 19
23 16 37 20 51 14 18 -8 15 -13 -30 -46 -32 -24 -53 -49 -61 -72 -13 -39 -12
-39 -33 -30 -13 4 -13 11 -5 35 10 28 8 64 -8 132 -10 45 27 32 39 -13z m-696
-27 c-3 -10 -5 -2 -5 17 0 19 2 27 5 18 2 -10 2 -26 0 -35z m1108 17 c3 -5 1
-10 -4 -10 -6 0 -11 5 -11 10 0 6 2 10 4 10 3 0 8 -4 11 -10z m461 -36 c19 -3
34 -12 34 -20 0 -16 -16 -19 -25 -4 -3 6 -26 15 -51 21 -47 12 -59 22 -49 39
4 6 16 3 32 -10 14 -11 40 -22 59 -26z m-622 -15 c28 -22 35 -59 12 -59 -7 0
-21 11 -30 25 -32 48 -96 20 -96 -42 0 -41 34 -62 69 -43 17 9 26 9 38 -1 13
-12 13 -14 -3 -26 -53 -39 -144 3 -144 67 0 35 23 86 42 93 32 13 87 6 112
-14z m107 -54 c-8 -42 -5 -48 31 -61 36 -12 37 -12 43 17 5 20 13 29 26 29 24
0 24 -11 -2 -91 -24 -72 -38 -92 -57 -80 -9 6 -10 15 -1 40 13 38 6 48 -38 57
-28 6 -32 3 -42 -29 -8 -25 -17 -34 -27 -30 -8 3 -14 11 -14 19 0 12 20 75 41
132 11 29 46 26 40 -3z m278 -81 c23 -19 31 -34 31 -59 0 -69 -35 -105 -101
-105 -42 0 -89 48 -89 90 0 35 23 86 42 93 36 15 88 6 117 -19z m-1450 -241
c23 -44 41 -86 41 -93 0 -24 -69 52 -95 104 -26 52 -30 82 -18 151 l6 40 13
-62 c7 -33 31 -97 53 -140z m157 -39 c16 -17 55 -53 87 -79 31 -26 57 -51 57
-56 0 -18 -123 68 -176 123 -44 46 -54 63 -54 91 0 51 11 51 35 -1 13 -26 36
-61 51 -78z m1212 32 c45 -15 82 -32 82 -37 0 -10 -170 48 -185 63 -7 8 -5 9
5 6 8 -3 52 -17 98 -32z m-33 -115 c-3 -6 -14 -11 -23 -11 -15 1 -15 2 2 15
21 16 32 13 21 -4z m-335 -146 c9 -8 34 -22 56 -30 l39 -15 -40 6 c-48 7 -98
32 -90 44 8 14 16 12 35 -5z m185 -15 c19 -8 19 -9 -2 -9 -12 -1 -25 4 -28 9
-7 12 2 12 30 0z m-1052 -214 c-19 -32 -74 -86 -88 -86 -23 0 -18 26 9 44 14
8 27 25 31 36 4 13 15 20 31 20 18 0 23 -4 17 -14z m-175 -93 c-2 -10 -13 -19
-26 -21 -24 -4 -29 7 -10 26 18 18 40 15 36 -5z m1170 -643 c47 -52 116 -136
153 -186 71 -96 70 -94 124 -322 5 -21 -4 -28 -98 -72 -176 -85 -509 -179
-590 -168 l-24 3 23 133 c12 74 25 143 29 155 3 12 12 153 20 312 7 160 17
304 20 321 7 30 11 32 68 41 l62 10 64 -66 c35 -36 102 -109 149 -161z m360
-204 c-2 -1 -10 -7 -18 -13 -12 -9 -15 -7 -15 17 0 27 1 27 18 13 9 -9 16 -17
15 -17z m-888 -128 c0 -5 -4 -8 -10 -8 -5 0 -10 10 -10 23 0 18 2 19 10 7 5
-8 10 -18 10 -22z m150 -13 c0 -8 -2 -15 -4 -15 -2 0 -6 7 -10 15 -3 8 -1 15
4 15 6 0 10 -7 10 -15z"/>
<path d="M1976 2544 c-8 -22 -6 -24 38 -31 29 -4 36 -2 36 10 0 32 -63 49 -74
21z"/>
<path d="M2341 1584 c0 -11 3 -14 6 -6 3 7 2 16 -1 19 -3 4 -6 -2 -5 -13z"/>
<path d="M3039 843 c-14 -3 -15 -10 -7 -43 6 -21 19 -47 29 -56 19 -17 19 -17
4 19 -9 21 -13 48 -9 62 3 14 5 24 3 24 -2 -1 -11 -3 -20 -6z"/>
<path d="M2952 725 c-6 -14 -8 -25 -3 -25 8 0 23 41 17 47 -1 2 -8 -8 -14 -22z"/>
<path d="M2882 2234 c-31 -22 -30 -78 2 -99 45 -30 104 18 89 73 -4 17 -40 42
-61 42 -4 0 -18 -7 -30 -16z"/>
</g>
</svg>
